<?xml version="1.0" encoding="UTF-8"?>
<svg id="_圖層_1" data-name="圖層 1" xmlns="http://www.w3.org/2000/svg" viewBox="0 0 686.94 681.55">
  <defs>
    <style>
      .cls-1 {
        fill: #040000;
      }
    </style>
  </defs>
  <rect class="cls-1" x="0" y="120.72" width="80.64" height="275.01" rx="40.32" ry="40.32"/>
  <rect class="cls-1" x="606.3" y="259.14" width="80.64" height="355.85" rx="40.32" ry="40.32"/>
  <path class="cls-1" d="M504.75,22.2h0c-20.65,0-37.67,15.53-40.03,35.55h-.29v.64c0,22.27-18.05,40.32-40.32,40.32h0c-22.27,0-40.32-18.05-40.32-40.32v-18.07c0-22.27-18.05-40.32-40.32-40.32h0c-22.27,0-40.32,18.05-40.32,40.32v425.63c0,22.27-18.05,40.32-40.32,40.32s-40.32-18.05-40.32-40.32V161.04c0-22.27-18.05-40.32-40.32-40.32h0c-22.27,0-40.32,18.05-40.32,40.32v413.63c0,22.27,18.05,40.32,40.32,40.32h0c21.41,0,38.92-16.69,40.23-37.77h.09v-.45c0-22.27,18.05-40.32,40.32-40.32s40.32,18.05,40.32,40.32v64.46c0,22.27,18.05,40.32,40.32,40.32h0c22.27,0,40.32-18.05,40.32-40.32V169.2c0-22.27,18.05-40.32,40.32-40.32h0c22.27,0,40.32,18.05,40.32,40.32v367.69c0,22.27,18.05,40.32,40.32,40.32h0c22.27,0,40.32-18.05,40.32-40.32V62.52c0-22.27-18.05-40.32-40.32-40.32Z"/>
  <rect class="cls-1" x="0" y="437.06" width="80.64" height="20.79" rx="10.4" ry="10.4"/>
  <path class="cls-1" d="M676.54,169.3h-19.53v-19.53c0-5.74-4.65-10.4-10.4-10.4s-10.4,4.65-10.4,10.4v19.53h-19.53c-5.74,0-10.4,4.65-10.4,10.4h0c0,5.74,4.65,10.4,10.4,10.4h19.53v19.53c0,5.74,4.65,10.4,10.4,10.4s10.4-4.65,10.4-10.4v-19.53h19.53c5.74,0,10.4-4.65,10.4-10.4h0c0-5.74-4.65-10.4-10.4-10.4Z"/>
</svg>